<mxfile host="app.diagrams.net" modified="2022-03-23T17:21:29.746Z" agent="5.0 (Windows NT 10.0; WOW64) AppleWebKit/537.36 (KHTML, like Gecko) Chrome/98.0.4758.116 Safari/537.36" etag="DBC1KqMvftwECUuVetfk" version="17.1.2" type="github">
  <diagram id="DCstFrnDpJVaRj_asohY" name="Page-1">
    <mxGraphModel dx="1038" dy="589" grid="1" gridSize="10" guides="1" tooltips="1" connect="1" arrows="1" fold="1" page="1" pageScale="1" pageWidth="850" pageHeight="1100" math="0" shadow="0">
      <root>
        <mxCell id="0" />
        <mxCell id="1" parent="0" />
        <mxCell id="rFXA0J6vXOWhYF8ysLt5-1" value="FoodTrucks" style="swimlane;childLayout=stackLayout;horizontal=1;startSize=30;horizontalStack=0;rounded=1;fontSize=14;fontStyle=0;strokeWidth=2;resizeParent=0;resizeLast=1;shadow=0;dashed=0;align=center;" vertex="1" parent="1">
          <mxGeometry x="150" y="70" width="160" height="120" as="geometry" />
        </mxCell>
        <mxCell id="rFXA0J6vXOWhYF8ysLt5-2" value="_id: ObjectId&#xa;name: String&#xa;menu: String&#xa;locaation: String" style="align=left;strokeColor=none;fillColor=none;spacingLeft=4;fontSize=12;verticalAlign=top;resizable=0;rotatable=0;part=1;" vertex="1" parent="rFXA0J6vXOWhYF8ysLt5-1">
          <mxGeometry y="30" width="160" height="90" as="geometry" />
        </mxCell>
      </root>
    </mxGraphModel>
  </diagram>
</mxfile>
